<?xml version="1.0" encoding="UTF-8" standalone="no"?>
<!-- Created with Inkscape (http://www.inkscape.org/) -->

<svg
   width="210mm"
   height="210mm"
   viewBox="0 0 210 210"
   version="1.1"
   id="svg1"
   xml:space="preserve"
   inkscape:version="1.4.2 (f4327f4, 2025-05-13)"
   sodipodi:docname="background.svg"
   xmlns:inkscape="http://www.inkscape.org/namespaces/inkscape"
   xmlns:sodipodi="http://sodipodi.sourceforge.net/DTD/sodipodi-0.dtd"
   xmlns="http://www.w3.org/2000/svg"
   xmlns:svg="http://www.w3.org/2000/svg"><sodipodi:namedview
     id="namedview1"
     pagecolor="#ffffff"
     bordercolor="#000000"
     borderopacity="0.25"
     inkscape:showpageshadow="2"
     inkscape:pageopacity="0.0"
     inkscape:pagecheckerboard="0"
     inkscape:deskcolor="#d1d1d1"
     inkscape:document-units="mm"
     inkscape:zoom="0.56252586"
     inkscape:cx="485.31102"
     inkscape:cy="404.42585"
     inkscape:window-width="1920"
     inkscape:window-height="1137"
     inkscape:window-x="-8"
     inkscape:window-y="-8"
     inkscape:window-maximized="1"
     inkscape:current-layer="layer1" /><defs
     id="defs1" /><g
     inkscape:label="Layer 1"
     inkscape:groupmode="layer"
     id="layer1"><path
       style="fill:#6aee35;stroke-width:1.0577;fill-opacity:1"
       d="m 139.52175,193.7702 c -6.63276,6.2328 -15.92833,8.31873 -24.75076,5.5541 -8.77856,-2.7509 -16.163866,-9.49059 -20.424959,-18.63945 -4.317987,-9.27103 -4.649988,-20.21246 -0.878122,-28.93944 1.211836,-2.80382 2.15692,-4.32563 4.249501,-6.84273 2.087546,-2.51105 3.20254,-3.52039 5.61808,-5.0857 0.76766,-0.49746 1.43789,-0.95023 1.48939,-1.00615 0.10534,-0.11441 -10.448832,-28.12062 -10.66713,-28.3058 -0.077,-0.0653 -12.703074,-2.53134 -28.058007,-5.48009 C 37.640636,99.559676 36.179723,99.281058 25.929671,97.363916 22.700415,96.759925 19.71554,96.162332 19.296617,96.035929 16.005359,95.042859 12.321842,92.044793 10.119113,88.566236 8.1735951,85.493872 6.5579726,80.959578 5.832995,76.53712 L 5.4305834,74.082339 45.414945,80.944227 c 21.991403,3.77404 40.019751,6.818951 40.063001,6.766469 0.04326,-0.05248 -6.38404,-17.17449 -14.282851,-38.04891 l -14.36147,-37.953491 2.483516,-0.07644 c 5.75325,-0.177078 11.175293,0.934175 15.140094,3.102978 1.767909,0.967077 4.178169,3.011377 5.283199,4.481045 1.221196,1.624161 1.47388,2.16354 3.921234,8.370438 4.566936,11.582504 25.707722,64.185308 25.840312,64.296257 0.12824,0.107305 29.25937,5.177015 29.68531,5.166154 0.10101,-0.0025 0.41307,-0.612281 0.69345,-1.354901 1.00276,-2.65602 2.08629,-4.486289 4.11073,-6.94377 1.24206,-1.50774 2.30713,-2.638503 3.18219,-3.378446 10.66183,-9.015655 26.64188,-10.336562 40.08773,-3.313643 1.98745,1.038072 2.42275,1.343656 5.42273,3.806842 2.83744,2.329729 3.4314,2.887451 4.5653,4.286762 7.25995,8.959334 8.50967,19.777349 3.36397,29.119959 -1.20513,2.18806 -4.21355,5.83749 -6.06993,7.36328 -2.26433,1.86108 -6.10722,3.85768 -9.888,5.13739 -7.26754,2.45991 -16.12749,2.35557 -24.566,-0.28931 -3.026,-0.94844 -4.91058,-1.70698 -9.40773,-3.78662 -10.67948,-4.93856 -19.30007,-8.61592 -24.5962,-10.49223 -3.31879,-1.17578 -7.09038,-2.15373 -7.13197,-1.84928 -0.0373,0.2732 1.15157,2.92337 2.02392,4.51155 2.58612,4.70822 7.76821,12.48895 15.43781,23.17938 4.93806,6.88302 6.06619,8.74295 8.01297,13.21081 2.61935,6.01145 3.8718,12.6258 3.45447,18.24343 -0.29014,3.9055 -1.29151,8.21033 -2.63351,11.3213 -1.09603,2.54077 -3.45237,5.81103 -5.72747,7.94897 z m -6.2752,-13.97638 c 3.20057,-6.81375 1.80287,-16.1838 -3.46316,-23.21673 -1.5177,-2.02692 -5.0809,-4.97521 -7.1395,-5.90741 -7.96364,-3.60619 -15.51491,0.26488 -17.74041,9.09441 -0.61912,2.45636 -0.753,4.19768 -0.53457,6.95278 0.5182,6.5362 3.58779,12.58518 8.39704,16.54737 3.43249,2.82791 6.8545,4.08912 10.46451,3.85678 2.32753,-0.14981 4.87964,-1.17431 6.6267,-2.6602 1.07956,-0.91816 2.63363,-3.05802 3.38939,-4.667 z m 56.13126,-68.00436 c 1.4456,-3.40622 1.12662,-7.50919 -0.84341,-10.84846 -1.08035,-1.831247 -2.13632,-3.026678 -4.11503,-4.658547 -4.84324,-3.994259 -11.28257,-5.835578 -17.81711,-5.09478 -2.74394,0.31107 -4.43088,0.775715 -6.70764,1.847514 -4.24527,1.998496 -7.04842,5.149733 -7.94848,8.935503 -0.76978,3.23781 0.118,7.01971 2.39999,10.22373 1.09092,1.53171 4.5555,4.5118 6.40065,5.50557 6.41001,3.45236 14.41511,3.96519 20.6033,1.31992 2.07139,-0.88546 3.10884,-1.50476 4.61313,-2.75379 1.2483,-1.03648 2.84048,-3.12388 3.4146,-4.47666 z"
       id="path1" /></g></svg>
