<?xml version="1.0" encoding="UTF-8" standalone="no"?>
<!-- Created with Inkscape (http://www.inkscape.org/) -->

<svg
   width="210mm"
   height="210mm"
   viewBox="0 0 210 210"
   version="1.1"
   id="svg1"
   sodipodi:docname="background.svg"
   inkscape:version="1.4.2 (f4327f4, 2025-05-13)"
   inkscape:export-filename="background.png"
   inkscape:export-xdpi="96"
   inkscape:export-ydpi="96"
   xmlns:inkscape="http://www.inkscape.org/namespaces/inkscape"
   xmlns:sodipodi="http://sodipodi.sourceforge.net/DTD/sodipodi-0.dtd"
   xmlns="http://www.w3.org/2000/svg"
   xmlns:svg="http://www.w3.org/2000/svg">
  <sodipodi:namedview
     id="namedview1"
     pagecolor="#ffffff"
     bordercolor="#000000"
     borderopacity="0.25"
     inkscape:showpageshadow="2"
     inkscape:pageopacity="0.0"
     inkscape:pagecheckerboard="0"
     inkscape:deskcolor="#d1d1d1"
     inkscape:document-units="mm"
     inkscape:zoom="0.28126293"
     inkscape:cx="-515.53185"
     inkscape:cy="-136.88259"
     inkscape:window-width="1920"
     inkscape:window-height="1137"
     inkscape:window-x="-8"
     inkscape:window-y="-8"
     inkscape:window-maximized="1"
     inkscape:current-layer="g1" />
  <defs
     id="defs1" />
  <g
     inkscape:label="Layer 1"
     inkscape:groupmode="layer"
     id="layer1">
    <g
       id="g1"
       transform="translate(8.9798432)">
      <g
         id="rect1"
         style="opacity:1;fill:none;stroke-width:1.06280966;stroke-dasharray:none"
         transform="translate(8.6236203,2.9449935)">
        <path
           style="baseline-shift:baseline;display:inline;overflow:visible;fill:none;stroke-linecap:round;stroke-linejoin:round;enable-background:accumulate;stop-color:#000000;stop-opacity:1;stroke-width:1.06280966;stroke-dasharray:none"
           d="m 101.50654,138.09111 h 21.48298 v 56.73718 h -21.48298 z"
           id="path2"
           sodipodi:nodetypes="ccccc" />
      </g>
      <path
         id="path1"
         style="fill:none;fill-opacity:1;stroke:#6aee35;stroke-width:31.2392;stroke-linecap:round;stroke-linejoin:round;stroke-dasharray:none;stroke-opacity:1"
         d="m 116.15732,16.624522 c -3.64086,0.221386 -6.23263,2.328708 -7.98161,4.387247 -3.07255,3.662938 -4.80193,7.775427 -7.66004,11.514752 -9.083592,13.16087 -13.158535,27.613906 -17.180849,41.8498 -4.00392,14.212257 -6.350293,28.689369 -6.045433,43.188539 0.0068,4.22864 4.606315,10.40736 7.14546,14.31992 3.621588,5.98333 4.893359,9.79806 12.821436,13.33996 3.455806,1.50821 7.298956,2.54725 11.241186,3.24058 0.0136,13.44398 -0.0274,26.88895 0.0206,40.33229 0.15157,2.04694 2.99513,3.67704 5.88938,3.47166 9.31871,-0.0155 18.64038,0.0307 27.9573,-0.023 2.86157,-0.16999 5.08949,-2.12482 4.80484,-4.10832 v -40.4844 c 5.49607,-1.14127 10.96435,-2.57147 15.74424,-4.82185 2.90401,-1.36813 5.3207,-3.26554 6.65969,-5.5427 4.49324,-6.77578 5.20025,-14.43253 4.46441,-21.78699 -0.70261,-6.9326 -2.53235,-13.77714 -4.27646,-20.610084 -2.27615,-7.650555 -5.85943,-15.073045 -9.51178,-22.446102 -3.57114,-7.048121 -7.33566,-14.049032 -11.30969,-20.991123 -4.95942,-8.180574 -10.86536,-16.082107 -17.55176,-23.636464 -3.10955,-3.388654 -6.24946,-6.825607 -10.36023,-9.673264 -1.2655,-0.824174 -2.80164,-1.738595 -4.66426,-1.525957 l -0.12974,0.0036 z m -51.172619,8.100041 c -0.516812,-0.0079 -1.032283,0.01731 -1.545661,0.07785 -6.389958,1.537614 -22.856984,15.345019 -28.883888,27.451485 -4.294872,8.627256 -12.155103,32.811144 -13.876074,43.434644 -1.957361,12.082768 -4.674602,25.688908 5.457449,36.002338 2.93613,2.98868 8.893051,4.58735 14.259804,5.69242 3.201847,0.65929 -2.874242,9.05025 0.482436,9.41695 l -0.781544,26.79991 37.835752,-0.65679 v -34.06498 c 4.35169,-2.79617 11.25365,-4.00709 1.575841,-13.54227 -2.428278,-3.52159 -2.260148,-14.97277 -1.379933,-19.73639 C 80.317899,93.753005 82.336558,81.659318 84.918792,70.016845 87.657173,57.670362 96.379953,47.785893 85.701537,37.217135 80.763131,32.329444 72.736873,24.843119 64.984701,24.724563 Z"
         sodipodi:nodetypes="ccccccccccccccccccccccccscssssccccsssss" />
    </g>
  </g>
</svg>
