<?xml version="1.0" encoding="UTF-8" standalone="no"?>
<!-- Created with Inkscape (http://www.inkscape.org/) -->

<svg
   width="210mm"
   height="210mm"
   viewBox="0 0 210 210"
   version="1.1"
   id="svg1"
   xml:space="preserve"
   inkscape:export-filename="camera.png"
   inkscape:export-xdpi="96"
   inkscape:export-ydpi="96"
   inkscape:version="1.4.2 (f4327f4, 2025-05-13)"
   sodipodi:docname="camera.svg"
   xmlns:inkscape="http://www.inkscape.org/namespaces/inkscape"
   xmlns:sodipodi="http://sodipodi.sourceforge.net/DTD/sodipodi-0.dtd"
   xmlns="http://www.w3.org/2000/svg"
   xmlns:svg="http://www.w3.org/2000/svg"><sodipodi:namedview
     id="namedview1"
     pagecolor="#ffffff"
     bordercolor="#000000"
     borderopacity="0.25"
     inkscape:showpageshadow="2"
     inkscape:pageopacity="0.0"
     inkscape:pagecheckerboard="0"
     inkscape:deskcolor="#d1d1d1"
     inkscape:document-units="mm"
     inkscape:zoom="0.28126293"
     inkscape:cx="-426.64705"
     inkscape:cy="542.19729"
     inkscape:window-width="1920"
     inkscape:window-height="1137"
     inkscape:window-x="-8"
     inkscape:window-y="-8"
     inkscape:window-maximized="1"
     inkscape:current-layer="layer1" /><defs
     id="defs1" /><g
     inkscape:label="Layer 1"
     inkscape:groupmode="layer"
     id="layer1"><path
       style="fill:#6aee35;stroke-width:9.61900088;fill-opacity:1;stroke:#6aee35;stroke-opacity:1;stroke-dasharray:none"
       d="M 32.62754,188.81715 C 28.888975,188.38941 24.020972,186.63213 21.016366,184.62569 14.68789,180.39961 10.666996,174.62394 8.8883875,167.20494 8.4773322,165.49033 8.4462145,162.69132 8.3679791,120.39759 8.306773,87.329278 8.359708,74.802465 8.5665866,73.105557 9.349483,66.692733 12.190183,61.104577 16.984426,56.54618 c 3.437009,-3.267937 7.377206,-5.489751 11.928351,-6.72621 l 2.377409,-0.645897 12.765645,-0.132037 12.765636,-0.132038 3.044546,-7.537807 c 3.435034,-8.504603 3.982177,-9.612854 6.213775,-12.58629 3.21426,-4.282761 7.689312,-7.447825 12.952811,-9.161125 4.179718,-1.360521 4.017935,-1.352316 26.663031,-1.352316 19.15192,0 21.09161,0.0367 23.05401,0.436187 6.69639,1.363184 12.44114,4.910739 16.31868,10.077254 2.2316,2.973436 2.77873,4.081687 6.21378,12.58629 l 3.04454,7.537807 12.76564,0.139449 c 12.17226,0.132969 12.85606,0.164348 14.71088,0.675102 5.56601,1.532682 9.45155,3.796176 13.27949,7.735868 4.0018,4.11862 6.51827,9.241185 7.3863,15.035624 0.55605,3.711859 0.54919,89.408279 -0.007,93.157109 -1.05217,7.08597 -4.64852,13.18742 -10.38723,17.62258 -3.99537,3.08783 -8.74177,5.00173 -13.7456,5.54269 -3.03394,0.32799 -142.833926,0.32678 -145.701121,-9.2e-4 z m 145.51979,-16.63554 c 3.1179,-0.81211 5.81371,-3.08841 7.25086,-6.12251 l 0.78176,-1.65045 0.0687,-44.74052 c 0.0489,-31.84447 -0.008,-45.055937 -0.19797,-45.834734 -0.69251,-2.841758 -2.94897,-5.756586 -5.51667,-7.126262 -2.50543,-1.336453 -3.09085,-1.375052 -20.97952,-1.383185 l -16.41296,-0.0074 -4.9409,-12.380489 c -3.30424,-8.279472 -5.23731,-12.804388 -5.83572,-13.660196 -1.15922,-1.657826 -3.03889,-3.176001 -4.82332,-3.895706 l -1.42092,-0.573091 -20.05929,-0.06632 c -19.397239,-0.06412 -20.111587,-0.05043 -21.644102,0.415062 -3.011471,0.914705 -5.304891,2.963871 -6.685292,5.973283 -0.429399,0.936146 -2.793271,6.761314 -5.25305,12.944814 l -4.472322,11.242728 -16.42909,0.0028 c -10.788595,0.0018 -16.920559,0.09404 -17.86057,0.267809 -3.256186,0.601943 -6.370329,3.031074 -7.914828,6.173826 l -0.833957,1.696926 -0.07159,44.745685 c -0.08005,50.00006 -0.201631,46.3465 1.637706,49.19232 1.586994,2.45539 3.889577,4.10899 6.701154,4.81245 0.958336,0.23978 16.277793,0.30857 72.348321,0.32487 63.16754,0.0184 71.29279,-0.0211 72.56358,-0.35206 z M 100.4678,161.60401 C 84.284334,159.62567 70.514017,149.89362 63.494113,135.4732 c -7.645319,-15.70516 -5.891165,-34.04518 4.616478,-48.266279 1.708231,-2.31192 5.67392,-6.422317 8.041707,-8.335138 6.163036,-4.978845 13.551694,-8.340193 21.519218,-9.789841 3.377364,-0.614497 10.545264,-0.73985 14.077184,-0.246203 10.38707,1.451799 19.61682,6.011032 26.88739,13.281605 15.40749,15.407485 18.18829,38.889456 6.80945,57.501096 -3.7415,6.11973 -10.11605,12.28857 -16.65018,16.11289 -4.05003,2.37041 -9.82801,4.45034 -15.02548,5.4088 -3.12605,0.57647 -10.32687,0.82758 -13.30208,0.46388 z m 7.65938,-16.29388 c 13.80998,-1.30936 24.69835,-11.11889 27.38251,-24.66939 0.44142,-2.22843 0.44334,-8.69875 0.004,-10.94197 -1.23805,-6.31038 -4.25474,-11.898284 -8.7768,-16.257562 -10.41688,-10.041898 -26.09941,-11.430101 -38.154374,-3.377394 -2.581356,1.72435 -6.297102,5.389789 -8.012951,7.904484 -10.441511,15.302722 -5.034435,36.033232 11.548093,44.274932 4.030416,2.00316 6.860805,2.72036 12.970852,3.28669 0.2006,0.0186 1.56835,-0.0803 3.03944,-0.21979 z"
       id="path1" /></g></svg>
