<?xml version="1.0" encoding="UTF-8" standalone="no"?>
<!-- Created with Inkscape (http://www.inkscape.org/) -->

<svg
   version="1.1"
   id="svg1"
   width="760"
   height="753"
   viewBox="0 0 760 753"
   sodipodi:docname="save.svg"
   inkscape:version="1.4.2 (f4327f4, 2025-05-13)"
   xmlns:inkscape="http://www.inkscape.org/namespaces/inkscape"
   xmlns:sodipodi="http://sodipodi.sourceforge.net/DTD/sodipodi-0.dtd"
   xmlns="http://www.w3.org/2000/svg"
   xmlns:svg="http://www.w3.org/2000/svg">
  <defs
     id="defs1" />
  <sodipodi:namedview
     id="namedview1"
     pagecolor="#ffffff"
     bordercolor="#000000"
     borderopacity="0.25"
     inkscape:showpageshadow="2"
     inkscape:pageopacity="0.0"
     inkscape:pagecheckerboard="0"
     inkscape:deskcolor="#d1d1d1"
     inkscape:zoom="0.83857418"
     inkscape:cx="543.18391"
     inkscape:cy="394.12137"
     inkscape:window-width="1920"
     inkscape:window-height="1137"
     inkscape:window-x="-8"
     inkscape:window-y="-8"
     inkscape:window-maximized="1"
     inkscape:current-layer="g1" />
  <g
     inkscape:groupmode="layer"
     inkscape:label="Image"
     id="g1">
    <path
       style="fill:#6aee35;fill-opacity:1"
       d="m 33.110467,741.43036 c -5.78412,-2.15754 -12.50259,-8.3992 -15.90657,-14.77766 l -2.3189,-4.34521 v -346 V 30.3075 l 3.19305,-5.522179 c 1.75617,-3.037199 4.23117,-6.469099 5.5,-7.626444 3.33777,-3.044512 9.88609,-6.927563 12.96305,-7.6868822 2.88067,-0.710881 171.768813,-1.072916 172.472013,-0.369717 0.2351,0.235094 0.52745,54.3774442 0.64967,120.3163222 l 0.22222,119.88889 171.75,0.25285 171.75005,0.25285 V 129.86936 c 0,-79.312135 0.3405,-120.1543162 1.0053,-120.5651882 0.553,-0.341749 23.756,-0.599184 51.5623,-0.572078 39.5651,0.03857 50.9239,0.328546 52.2447,1.3337452 0.9282,0.706454 21.5853,21.305196 45.9046,45.774982 l 44.217,44.490509 0.4652,307.48808 c 0.3252,214.88038 0.1454,308.99395 -0.5969,312.48808 -1.8025,8.48436 -9.6094,17.43235 -18.4218,21.1144 -3.1768,1.32736 -43.98,1.52629 -347.61098,1.69475 C 47.850187,743.3021 38.000817,743.25452 33.110467,741.43036 Z M 578.88505,683.46669 c 6.8336,-2.51589 14.883,-10.47668 16.9342,-16.74801 1.3832,-4.22898 1.5658,-17.86084 1.5658,-116.94518 0,-123.75891 0.2409,-118.89923 -6.2498,-126.04355 -1.7876,-1.96765 -5.5002,-5.11765 -8.2502,-7 l -5,-3.42246 H 382.385 c -188.00318,0 -195.64776,0.0708 -199.35332,1.84595 -4.87244,2.33415 -11.32088,8.12334 -13.29009,11.93137 -4.41003,8.52807 -4.33494,6.4109 -4.33494,122.22268 0,115.99062 -0.0828,113.67965 4.38416,122.31786 1.5906,3.07588 8.46615,9.17552 12.09419,10.72935 7.25998,3.10933 14.44833,3.2186 203,3.08585 180.88985,-0.12735 189.21455,-0.21205 194.00005,-1.97386 z M 428.53317,223.80181 c -2.2793,-2.2793 -3.16307,-4.27306 -3.65697,-8.25 -0.35821,-2.88437 -0.50278,-43.71932 -0.32125,-90.74432 0.36405,-94.30701 -0.0989,-87.769825 6.52498,-92.13729 2.6035,-1.716614 5.49984,-1.849522 40.30507,-1.849522 34.61355,0 37.71285,0.140371 40.26565,1.823649 6.0523,3.990889 5.6679,-2.528799 5.7026,96.716993 l 0.032,91.05384 -3.2977,3.19616 -3.2976,3.19617 h -39.62563 -39.62547 z"
       id="path1" />
  </g>
</svg>
