<?xml version="1.0" encoding="UTF-8" standalone="no"?>
<!-- Created with Inkscape (http://www.inkscape.org/) -->

<svg
   width="210mm"
   height="210mm"
   viewBox="0 0 210 210"
   version="1.1"
   id="svg1"
   xml:space="preserve"
   inkscape:version="1.4.2 (f4327f4, 2025-05-13)"
   sodipodi:docname="unchecked.svg"
   inkscape:export-filename="checked.png"
   inkscape:export-xdpi="96"
   inkscape:export-ydpi="96"
   xmlns:inkscape="http://www.inkscape.org/namespaces/inkscape"
   xmlns:sodipodi="http://sodipodi.sourceforge.net/DTD/sodipodi-0.dtd"
   xmlns="http://www.w3.org/2000/svg"
   xmlns:svg="http://www.w3.org/2000/svg"><sodipodi:namedview
     id="namedview1"
     pagecolor="#ffffff"
     bordercolor="#000000"
     borderopacity="0.25"
     inkscape:showpageshadow="2"
     inkscape:pageopacity="0.0"
     inkscape:pagecheckerboard="0"
     inkscape:deskcolor="#d1d1d1"
     inkscape:document-units="mm"
     inkscape:zoom="0.28126293"
     inkscape:cx="-419.53626"
     inkscape:cy="271.98749"
     inkscape:window-width="1920"
     inkscape:window-height="1137"
     inkscape:window-x="-8"
     inkscape:window-y="-8"
     inkscape:window-maximized="1"
     inkscape:current-layer="layer1" /><defs
     id="defs1" /><g
     inkscape:label="Layer 1"
     inkscape:groupmode="layer"
     id="layer1"><path
       style="fill:none;fill-opacity:1;stroke:#6aee35;stroke-width:25.2537;stroke-dasharray:none;stroke-opacity:1"
       d="m 166.67495,188.13219 c 4.38291,-0.34089 8.33065,-1.86311 11.75243,-4.53169 1.13629,-0.88617 3.1003,-2.86904 3.92377,-3.96144 2.53286,-3.36006 4.01139,-7.32006 4.32308,-11.57867 0.16454,-2.24791 0.15843,-122.941562 -0.006,-125.106745 -0.80705,-10.606182 -9.0056,-18.959454 -19.59151,-19.961237 -1.0037,-0.09499 -19.71567,-0.121524 -63.96548,-0.09072 -56.567982,0.03937 -62.641549,0.06238 -63.538568,0.240719 -2.493269,0.495686 -4.291715,1.093557 -6.262529,2.081891 -5.453243,2.73473 -9.654914,7.916639 -11.158761,13.762066 -0.720744,2.801521 -0.661505,-2.678455 -0.709022,65.584196 -0.03085,44.2498 -0.0048,62.96177 0.09077,63.96547 0.428825,4.53144 2.124683,8.54168 5.122539,12.11341 3.516938,4.19019 9.088504,7.04776 14.562378,7.4688 1.906561,0.14665 123.577143,0.16017 125.457273,0.0139 z"
       id="path2" /></g></svg>
